{"asset":{"version":"2.0","generator":"babylon.js glTF exporter for   v"},"scene":0,"scenes":[{"nodes":[0,1],"extensions":{}}],"nodes":[{"mesh":0,"translation":[0.0,0.0,0.597458243],"rotation":[-0.7071068,0.0,0.0,0.7071067],"scale":[1.0,1.0,1.0],"name":"TerrainMesh"},{"translation":[0.0,0.0,0.0],"rotation":[0.0,0.0,0.0,1.0],"scale":[1.0,1.0,1.0],"name":"Default light"}],"meshes":[{"primitives":[{"attributes":{"POSITION":1,"NORMAL":2,"TEXCOORD_0":3},"indices":0,"mode":4,"material":0},{"attributes":{"POSITION":5,"NORMAL":6,"TEXCOORD_0":7},"indices":4,"mode":4,"material":1}],"name":"TerrainMesh"}],"accessors":[{"bufferView":0,"componentType":5123,"count":25032,"type":"SCALAR","name":"accessorIndices"},{"bufferView":1,"componentType":5126,"count":25032,"max":[1.0,0.611806035,0.023887],"min":[0.0,0.0,0.0],"type":"VEC3","name":"accessorPositions"},{"bufferView":1,"byteOffset":300384,"componentType":5126,"count":25032,"type":"VEC3","name":"accessorNormals"},{"bufferView":2,"componentType":5126,"count":25032,"type":"VEC2","name":"accessorUVs"},{"bufferView":0,"byteOffset":50064,"componentType":5123,"count":8346,"type":"SCALAR","name":"accessorIndices"},{"bufferView":1,"byteOffset":600768,"componentType":5126,"count":8346,"max":[1.0,0.611806035,0.0228139646],"min":[0.0,0.0,-0.0426428467],"type":"VEC3","name":"accessorPositions"},{"bufferView":1,"byteOffset":700920,"componentType":5126,"count":8346,"type":"VEC3","name":"accessorNormals"},{"bufferView":2,"byteOffset":200256,"componentType":5126,"count":8346,"type":"VEC2","name":"accessorUVs"}],"bufferViews":[{"buffer":0,"byteLength":66756,"name":"bufferViewScalar"},{"buffer":0,"byteOffset":66756,"byteLength":801072,"byteStride":12,"name":"bufferViewFloatVec3"},{"buffer":0,"byteOffset":867828,"byteLength":267024,"byteStride":8,"name":"bufferViewFloatVec2"}],"buffers":[{"uri":"NTC_Draco.bin","byteLength":1134852}],"materials":[{"pbrMetallicRoughness":{"baseColorFactor":[1.0,1.0,1.0,1.0],"baseColorTexture":{"index":0,"texCoord":0},"metallicFactor":0.0,"roughnessFactor":0.450053632},"emissiveFactor":[0.0,0.0,0.0],"alphaMode":"OPAQUE","name":"Material #1290"},{"pbrMetallicRoughness":{"baseColorFactor":[0.2764706,0.24313727,0.231372565,1.0],"metallicFactor":0.0,"roughnessFactor":0.7022211},"emissiveFactor":[0.0,0.0,0.0],"alphaMode":"OPAQUE","name":"Material #1480"}],"textures":[{"sampler":0,"source":0,"name":"NTC_2048.jpg"}],"images":[{"uri":"textures/NTC_2048.jpg"}],"samplers":[{"magFilter":9729,"minFilter":9987,"wrapS":10497,"wrapT":10497}]}